HIERARCHY
ROOT Hips
{
 OFFSET 0.000000 0.000000 0.000000
 CHANNELS 6 Xposition Yposition Zposition Yrotation Xrotation Zrotation
 JOINT Chest
 {
  OFFSET 0.000000 9.585900 0.002600
  CHANNELS 3 Yrotation Xrotation Zrotation
  JOINT Chest2
  {
   OFFSET 0.000000 9.601200 -0.005300
   CHANNELS 3 Yrotation Xrotation Zrotation
   JOINT Chest3
   {
    OFFSET 0.000000 9.561800 0.000000
    CHANNELS 3 Yrotation Xrotation Zrotation
    JOINT Chest4
    {
     OFFSET 0.000000 9.552100 0.000000
     CHANNELS 3 Yrotation Xrotation Zrotation
     JOINT Neck
     {
      OFFSET 0.000000 14.453000 0.000000
      CHANNELS 3 Yrotation Xrotation Zrotation
      JOINT Head
      {
       OFFSET 0.000000 8.936500 -0.011300
       CHANNELS 3 Yrotation Xrotation Zrotation
       End Site
       {
        OFFSET 0.000000 17.073600 -0.006000
       }
      }
     }
     JOINT RightCollar
     {
      OFFSET -2.921100 9.558500 0.000000
      CHANNELS 3 Yrotation Xrotation Zrotation
      JOINT RightShoulder
      {
       OFFSET -13.519700 0.000000 0.000000
       CHANNELS 3 Yrotation Xrotation Zrotation
       JOINT RightElbow
       {
        OFFSET 0.000000 -29.696600 0.000000
        CHANNELS 3 Yrotation Xrotation Zrotation
        JOINT RightWrist
        {
         OFFSET 0.000000 -24.004700 0.000000
         CHANNELS 3 Yrotation Xrotation Zrotation
         End Site
         {
          OFFSET 0.000000 -17.728500 0.000000
         }
        }
       }
      }
     }
     JOINT LeftCollar
     {
      OFFSET 2.921100 9.558500 0.000000
      CHANNELS 3 Yrotation Xrotation Zrotation
      JOINT LeftShoulder
      {
       OFFSET 13.519700 0.000000 0.000000
       CHANNELS 3 Yrotation Xrotation Zrotation
       JOINT LeftElbow
       {
        OFFSET 0.000000 -29.696600 0.000000
        CHANNELS 3 Yrotation Xrotation Zrotation
        JOINT LeftWrist
        {
         OFFSET 0.000000 -24.004700 0.000000
         CHANNELS 3 Yrotation Xrotation Zrotation
         End Site
         {
          OFFSET 0.000000 -17.728500 0.000000
         }
        }
       }
      }
     }
    }
   }
  }
 }
 JOINT RightHip
 {
  OFFSET -7.771700 -0.012900 -0.001300
  CHANNELS 3 Yrotation Xrotation Zrotation
  JOINT RightKnee
  {
   OFFSET 0.000000 -40.869800 0.001200
   CHANNELS 3 Yrotation Xrotation Zrotation
   JOINT RightAnkle
   {
    OFFSET 0.000000 -39.717900 0.002100
    CHANNELS 3 Yrotation Xrotation Zrotation
    JOINT RightToe
    {
     OFFSET 0.000000 -4.965400 11.033500
     CHANNELS 3 Yrotation Xrotation Zrotation
     End Site
     {
      OFFSET 0.000000 -1.423100 5.872300
     }
    }
   }
  }
 }
 JOINT LeftHip
 {
  OFFSET 7.771700 -0.012900 -0.001300
  CHANNELS 3 Yrotation Xrotation Zrotation
  JOINT LeftKnee
  {
   OFFSET 0.000000 -40.869800 0.001200
   CHANNELS 3 Yrotation Xrotation Zrotation
   JOINT LeftAnkle
   {
    OFFSET 0.000000 -39.717900 0.002100
    CHANNELS 3 Yrotation Xrotation Zrotation
    JOINT LeftToe
    {
     OFFSET 0.000000 -4.965400 11.033500
     CHANNELS 3 Yrotation Xrotation Zrotation
     End Site
     {
      OFFSET 0.000000 -1.423100 5.872300
     }
    }
   }
  }
 }
}
MOTION
Frames: 13
Frame Time: 0.008333
-15.422073 57.719781 77.708625 -175.480401 -26.568222 -1.038798 3.825144 19.721334 5.061960 0.305590 2.505657 0.338870 0.599707 4.123634 0.586228 2.840876 17.087305 2.790234 -4.556589 14.316566 -2.363336 -7.656327 -9.212975 -2.695358 1.997970 -0.944975 -0.650105 2.317948 -43.087208 -3.858509 174.484066 -55.967428 170.992566 -5.938945 -15.221160 -44.985405 -8.964380 -4.238075 -0.991895 -4.968915 -14.720843 4.657422 -67.275219 -49.772795 34.125459 -15.639305 -19.511415 43.256939 7.739770 -44.601518 -7.161949 -3.155851 68.448922 -5.599712 4.881810 6.503264 8.035817 -0.378093 0.146541 -0.191469 -6.596676 -52.682741 -5.758147 29.693398 63.371895 34.311216 -15.111718 36.756706 -2.239422 0.452067 -19.714153 -6.561061
-15.404850 57.726376 77.697821 -175.482306 -26.526600 -1.071694 3.777442 19.670250 5.061784 0.300565 2.493820 0.334422 0.589292 4.099350 0.582051 2.803949 17.046920 2.776520 -4.529284 14.238823 -2.397804 -7.593219 -9.359204 -2.767182 1.971237 -0.933196 -0.733316 2.236495 -43.024175 -3.893987 174.543308 -55.949963 171.041187 -5.947623 -15.229520 -44.977513 -8.884577 -4.186522 -1.002318 -4.933846 -14.678478 4.587021 -67.263348 -49.712530 34.116486 -15.612657 -19.528627 43.270676 7.706802 -44.665201 -7.112471 -3.199060 68.480463 -5.599236 4.806625 6.566791 7.940482 -0.287314 0.081458 -0.151540 -6.670349 -52.727198 -5.664645 29.720168 63.380723 34.387193 -15.283365 36.722761 -2.445928 0.467663 -19.675487 -6.476908
-15.387593 57.732438 77.687336 -175.487280 -26.477634 -1.105293 3.675586 19.614914 5.026424 0.348231 2.485664 0.347462 0.579344 4.075912 0.578259 2.768431 17.007711 2.764174 -4.504381 14.160886 -2.431152 -7.534903 -9.505661 -2.836093 1.951713 -0.923295 -0.816108 2.131717 -42.956526 -3.930598 174.586920 -55.925103 171.113170 -5.953928 -15.234104 -44.972655 -8.787215 -4.112314 -1.018068 -4.929319 -14.665901 4.527825 -67.207929 -49.653102 34.056581 -15.613847 -19.555472 43.301139 7.675311 -44.710369 -7.069204 -3.205982 68.479088 -5.586238 4.812499 6.564091 7.920730 -0.292297 0.075969 -0.147869 -6.781639 -52.782945 -5.527840 29.739745 63.404065 34.430216 -15.463041 36.685143 -2.659428 0.489551 -19.587530 -6.389021
-15.372992 57.734832 77.682970 -175.526205 -26.385149 -1.108868 3.667074 19.520460 5.016104 0.360235 2.479290 0.349439 0.537524 4.044520 0.568924 2.732807 16.970691 2.751166 -4.482274 14.083817 -2.462603 -7.482406 -9.650457 -2.900547 1.961232 -0.899812 -0.880761 2.004000 -42.897595 -3.996476 174.606804 -55.892585 171.209622 -5.958115 -15.238856 -44.973432 -8.715817 -4.086272 -1.025596 -4.895779 -14.612875 4.486935 -67.079880 -49.619793 33.905372 -15.625780 -19.597017 43.354312 7.688247 -44.801913 -7.044063 -3.224019 68.469064 -5.572852 4.740724 6.573901 7.853895 -0.221182 0.082681 -0.121209 -6.800093 -52.876039 -5.460661 29.736001 63.413981 34.449710 -15.484058 36.679338 -2.698581 0.414299 -19.470368 -6.355737
-15.359286 57.739118 77.672863 -175.539216 -26.327021 -1.126268 3.668683 19.461027 5.028334 0.342342 2.471148 0.345245 0.515754 4.024204 0.563777 2.678915 16.929113 2.734475 -4.462962 14.009146 -2.491696 -7.435891 -9.790602 -2.959735 1.971178 -0.883435 -0.940879 1.866404 -42.830024 -4.068775 174.598823 -55.853548 171.330648 -5.964065 -15.242590 -44.971468 -8.675987 -4.125873 -1.031581 -4.836803 -14.502730 4.444627 -66.999140 -49.591046 33.808885 -15.658378 -19.616037 43.402976 7.664854 -44.847949 -7.011058 -3.216890 68.455202 -5.541579 4.705523 6.558100 7.800915 -0.185965 0.102666 -0.104312 -6.873491 -52.937275 -5.363098 29.746770 63.429909 34.458957 -15.534537 36.684364 -2.753705 0.360383 -19.376913 -6.320435
-15.338165 57.744339 77.658297 -175.549236 -26.292029 -1.196737 3.644578 19.421164 5.076252 0.336006 2.457923 0.342511 0.509428 4.010767 0.562487 2.694559 16.927599 2.730376 -4.493002 13.908580 -2.510605 -7.394022 -9.923587 -3.015549 1.975933 -0.877251 -0.969420 1.693745 -42.781239 -4.183134 174.571659 -55.809650 171.466873 -5.972940 -15.242048 -44.956687 -8.662286 -4.153460 -1.037770 -4.825720 -14.452720 4.399706 -66.922201 -49.541851 33.729512 -15.653253 -19.623257 43.430757 7.594895 -44.881650 -6.910343 -3.230065 68.450855 -5.528205 4.718097 6.558669 7.775821 -0.189252 0.095224 -0.105347 -7.042077 -52.979903 -5.160927 29.745894 63.482096 34.488153 -15.699033 36.639348 -2.959867 0.393575 -19.294149 -6.251316
-15.326013 57.746641 77.647494 -175.554708 -26.233635 -1.219614 3.562147 19.368165 5.055416 0.368801 2.444658 0.345070 0.480411 3.991685 0.559985 2.646577 16.894412 2.716060 -4.412197 13.916052 -2.540700 -7.397875 -10.102768 -3.055797 2.057391 -0.832144 -1.010678 1.499523 -42.723490 -4.298739 174.540730 -55.763750 171.605597 -5.979759 -15.239590 -44.928311 -8.562748 -4.133761 -1.066862 -4.831550 -14.415682 4.365343 -66.848778 -49.497745 33.664082 -15.642589 -19.627585 43.448797 7.572423 -44.929534 -6.871776 -3.251680 68.440356 -5.533051 4.680742 6.547945 7.742609 -0.159721 0.109734 -0.090456 -7.106968 -53.041760 -5.076730 29.744940 63.501547 34.486177 -15.717519 36.661271 -2.975907 0.347085 -19.267021 -6.236463
-15.312316 57.748927 77.634331 -175.551751 -26.188267 -1.262063 3.512217 19.328446 5.075034 0.368163 2.433852 0.338348 0.463856 3.977734 0.563289 2.576879 16.858051 2.702710 -4.389882 13.838056 -2.576932 -7.330718 -10.189509 -3.123100 2.106660 -0.822782 -1.089795 1.297819 -42.626569 -4.371970 174.507962 -55.716824 171.748329 -5.984101 -15.239090 -44.893136 -8.460769 -4.138642 -1.106655 -4.865844 -14.393853 4.314977 -66.747394 -49.418425 33.612162 -15.556703 -19.648233 43.388461 7.508362 -44.953515 -6.797405 -3.245582 68.412198 -5.507591 4.630236 6.526804 7.685704 -0.121154 0.139514 -0.073210 -7.188695 -53.086984 -4.976040 29.739888 63.521072 34.481494 -15.730091 36.686086 -2.987634 0.309450 -19.259625 -6.223433
-15.298929 57.751312 77.618795 -175.579405 -26.158226 -1.295850 3.474032 19.305544 5.098979 0.310157 2.417242 0.336298 0.517392 3.969595 0.559761 2.530824 16.834582 2.694086 -4.389738 13.755180 -2.608304 -7.255982 -10.267365 -3.197921 2.146463 -0.826362 -1.171705 1.064697 -42.515614 -4.437054 174.462576 -55.668450 171.907995 -5.988998 -15.240117 -44.859236 -8.385303 -4.171791 -1.146043 -4.858201 -14.338542 4.291007 -66.648272 -49.377006 33.508847 -15.574958 -19.664641 43.422804 7.481374 -44.976772 -6.728163 -3.229060 68.404898 -5.477929 4.613327 6.517417 7.659248 -0.109860 0.146892 -0.064607 -7.234655 -53.116624 -4.879299 29.746942 63.561655 34.503477 -15.756070 36.646698 -3.023104 0.295754 -19.224750 -6.204110
-15.292496 57.750860 77.607198 -175.582543 -26.104167 -1.302998 3.414884 19.258018 5.089695 0.335887 2.412170 0.332523 0.492135 3.956366 0.560378 2.465612 16.805624 2.689520 -4.365800 13.705440 -2.641713 -7.198320 -10.361197 -3.268363 2.173934 -0.826427 -1.252022 0.830739 -42.391541 -4.497910 174.395242 -55.618140 172.091315 -5.992167 -15.240918 -44.831761 -8.299624 -4.188151 -1.185534 -4.852403 -14.295492 4.271021 -66.554230 -49.349291 33.402378 -15.597587 -19.678940 43.459658 7.476304 -45.018511 -6.719031 -3.211884 68.396754 -5.449264 4.591261 6.508161 7.638499 -0.096722 0.156264 -0.057717 -7.252141 -53.171244 -4.847687 29.753673 63.575068 34.510659 -15.755323 36.656749 -3.021238 0.276130 -19.223611 -6.195993
-15.291013 57.751147 77.592333 -175.568876 -26.074219 -1.295815 3.335532 19.235323 5.060080 0.360618 2.407337 0.328747 0.505562 3.954669 0.557952 2.364700 16.770061 2.692249 -4.338232 13.658381 -2.674887 -7.133921 -10.450124 -3.339964 2.136145 -0.837583 -1.363925 0.616615 -42.244241 -4.508448 174.311964 -55.565044 172.288652 -5.992031 -15.244522 -44.810800 -8.216569 -4.208576 -1.222641 -4.825614 -14.242173 4.255526 -66.490873 -49.339424 33.308090 -15.588759 -19.699399 43.479590 7.483837 -45.050062 -6.760612 -3.144889 68.429546 -5.366426 4.575018 6.486407 7.623339 -0.093077 0.154965 -0.054817 -7.246656 -53.203825 -4.860806 29.767419 63.588002 34.522735 -15.756409 36.667092 -3.016816 0.273852 -19.231272 -6.192664
-15.289043 57.751075 77.576412 -175.569892 -26.053339 -1.292492 3.275290 19.223742 5.042890 0.351402 2.394062 0.328030 0.438811 3.934988 0.562387 2.430079 16.783126 2.673689 -4.356250 13.600855 -2.684587 -7.061451 -10.539292 -3.409243 2.084611 -0.840966 -1.428511 0.364827 -42.107620 -4.552708 174.224271 -55.508474 172.487514 -5.990708 -15.252032 -44.795468 -8.192587 -4.248149 -1.237187 -4.898878 -14.240660 4.236617 -66.294596 -49.285066 33.163039 -15.546336 -19.724241 43.458505 7.497930 -45.074477 -6.778610 -3.136078 68.459367 -5.346282 4.561485 6.469576 7.615687 -0.092673 0.151958 -0.052648 -7.183652 -53.226029 -4.891839 29.771536 63.611272 34.540276 -15.753683 36.656498 -2.990100 0.275762 -19.233646 -6.192727
-15.288308 57.751471 77.557965 -175.601705 -26.054310 -1.277073 3.247937 19.236939 5.029831 0.341683 2.383102 0.326837 0.412658 3.932710 0.563614 2.372398 16.771925 2.664680 -4.295760 13.561086 -2.722852 -6.984405 -10.628764 -3.472931 2.133177 -0.819028 -1.508508 0.078026 -41.966083 -4.605964 174.130825 -55.447380 172.687303 -5.989070 -15.259253 -44.784312 -8.084830 -4.282248 -1.286155 -4.956379 -14.233825 4.235201 -66.133406 -49.252521 33.036442 -15.542345 -19.736176 43.464593 7.537125 -45.079218 -6.789643 -3.139496 68.488847 -5.343107 4.559720 6.453516 7.613317 -0.092660 0.148392 -0.050096 -7.134260 -53.227056 -4.903146 29.858203 63.635083 34.609195 -15.691427 36.614445 -2.895968 0.241729 -19.223589 -6.216842
